<svg width="89" height="44" viewBox="0 0 89 44" fill="none" xmlns="http://www.w3.org/2000/svg">
<path d="M11.5977 3.57024C11.5977 -1.92553 19.0992 0.120344 19.2597 1.88541C19.2597 1.88541 16.2912 1.12322 16.2912 4.85393V14.6821C16.2912 21.622 12.0791 24.6708 7.06468 24.6708C4.09616 24.6708 1.84972 22.665 1.0073 20.6593C-0.15604 17.9315 3.45432 17.5303 3.45432 17.5303C3.37409 21.261 4.57754 24.029 7.06468 24.029C10.1134 24.029 11.5977 21.2209 11.5977 14.9228V3.57024Z" fill="white"/>
<path d="M30.8711 0C37.5703 0 43.026 5.49577 43.026 12.195V12.4758C43.026 19.175 37.5703 24.6708 30.8711 24.6708H30.5903C23.8911 24.6708 18.3953 19.175 18.3953 12.4758V12.195C18.3953 5.49577 23.8911 0 30.5903 0H30.8711ZM35.7652 22.8656C39.4959 21.1407 40.3784 15.0833 37.7308 9.34682L37.5302 8.94567C34.8826 3.20921 29.6677 -0.0401147 25.937 1.68483L25.6562 1.80518C21.9255 3.53013 21.0429 9.62763 23.7306 15.324L23.8911 15.7251C26.5387 21.4616 31.7537 24.751 35.4844 22.986L35.7652 22.8656Z" fill="white"/>
<path d="M66.7898 19.8169C66.7898 23.5476 69.7583 22.7854 69.7583 22.7854C69.7182 23.708 67.6723 24.6708 65.7067 24.6708C63.9015 24.6708 62.1365 23.7481 62.1365 21.1006V9.90843C61.294 9.90843 60.4115 10.0689 59.529 10.3096C56.4 11.3125 53.7123 13.9601 52.1478 17.6105V19.8169C52.1478 23.5476 55.1163 22.7854 55.1163 22.7854C55.0361 23.708 52.9902 24.6708 51.0647 24.6708C49.2194 24.6708 47.4543 23.7481 47.4543 21.1006V4.85393C47.4543 1.12322 44.4858 1.88541 44.4858 1.88541C44.566 0.962762 46.5718 0 48.5374 0C50.3827 0 52.1478 0.922648 52.1478 3.57024V16.1263C53.8326 12.9572 56.4 10.6706 59.3284 9.70786C60.2912 9.42705 61.2138 9.26659 62.1365 9.26659V4.85393C62.1365 1.12322 59.1679 1.88541 59.1679 1.88541C59.2081 0.962762 61.2539 0 63.2196 0C65.0248 0 66.7898 0.922648 66.7898 3.57024V19.8169Z" fill="white"/>
<path d="M83.9766 1.44414C83.6958 0.441265 87.5469 -1.24357 87.5469 1.56449V24.6708H86.905V24.6307C84.819 24.4301 83.3749 23.3069 82.1714 21.3011L71.1398 2.9284V18.8541C71.1398 21.6622 73.7473 22.1435 74.0682 23.2668C74.349 24.2696 70.4979 25.9144 70.4979 23.1063V1.88541C70.4979 -0.361036 74.2287 -1.08311 76.3146 2.60748L86.905 20.0977V5.81669C86.905 3.00863 84.2975 2.56737 83.9766 1.44414Z" fill="white"/>
<path d="M3.90184 42.9945H0L5.06799 27.9739H9.90128L14.9693 42.9945H11.0674L7.53964 31.7584H7.42229L3.90184 42.9945ZM3.3811 37.0831H11.5368V39.8408H3.3811V37.0831Z" fill="white"/>
<path d="M16.5865 27.9739H21.0824L24.8962 37.2738H25.0722L28.8861 27.9739H33.382V42.9945H29.8469V33.768H29.7222L26.1137 42.8992H23.8548L20.2463 33.7167H20.1216V42.9945H16.5865V27.9739Z" fill="white"/>
<path d="M49.8236 35.4842C49.8236 37.1369 49.5058 38.5377 48.8702 39.6868C48.2345 40.8358 47.374 41.7086 46.2885 42.3051C45.2079 42.9016 43.9953 43.1999 42.6507 43.1999C41.3012 43.1999 40.0861 42.8992 39.0055 42.2978C37.925 41.6964 37.0669 40.8236 36.4312 39.6794C35.8005 38.5304 35.4851 37.132 35.4851 35.4842C35.4851 33.8316 35.8005 32.4307 36.4312 31.2817C37.0669 30.1326 37.925 29.2599 39.0055 28.6633C40.0861 28.0668 41.3012 27.7686 42.6507 27.7686C43.9953 27.7686 45.2079 28.0668 46.2885 28.6633C47.374 29.2599 48.2345 30.1326 48.8702 31.2817C49.5058 32.4307 49.8236 33.8316 49.8236 35.4842ZM46.1125 35.4842C46.1125 34.5063 45.9731 33.68 45.6944 33.0052C45.4206 32.3305 45.0246 31.8195 44.5063 31.4724C43.9929 31.1252 43.3743 30.9516 42.6507 30.9516C41.9319 30.9516 41.3134 31.1252 40.7951 31.4724C40.2768 31.8195 39.8783 32.3305 39.5996 33.0052C39.3258 33.68 39.1889 34.5063 39.1889 35.4842C39.1889 36.4621 39.3258 37.2885 39.5996 37.9632C39.8783 38.638 40.2768 39.1489 40.7951 39.4961C41.3134 39.8432 41.9319 40.0168 42.6507 40.0168C43.3743 40.0168 43.9929 39.8432 44.5063 39.4961C45.0246 39.1489 45.4206 38.638 45.6944 37.9632C45.9731 37.2885 46.1125 36.4621 46.1125 35.4842Z" fill="white"/>
<path d="M51.9432 42.9945V27.9739H58.148C59.2726 27.9739 60.2432 28.1768 61.0597 28.5827C61.8812 28.9836 62.5144 29.5606 62.9593 30.3136C63.4043 31.0616 63.6267 31.9491 63.6267 32.9759C63.6267 34.0174 63.3994 34.9024 62.9446 35.6309C62.4899 36.3546 61.8445 36.9071 61.0084 37.2885C60.1723 37.6649 59.1822 37.8532 58.038 37.8532H54.1142V34.9928H57.3633C57.9109 34.9928 58.3681 34.9219 58.7348 34.7801C59.1064 34.6334 59.3875 34.4134 59.5782 34.12C59.7689 33.8218 59.8642 33.4404 59.8642 32.9759C59.8642 32.5114 59.7689 32.1276 59.5782 31.8244C59.3875 31.5164 59.1064 31.2866 58.7348 31.135C58.3632 30.9785 57.906 30.9003 57.3633 30.9003H55.5737V42.9945H51.9432ZM60.3997 36.1296L64.1401 42.9945H60.1796L56.5125 36.1296H60.3997Z" fill="white"/>
<path d="M69.2485 27.9739V42.9945H65.618V27.9739H69.2485Z" fill="white"/>
<path d="M71.5276 27.9739H76.0235L79.8373 37.2738H80.0134L83.8272 27.9739H88.3231V42.9945H84.788V33.768H84.6633L81.0548 42.8992H78.7959L75.1874 33.7167H75.0627V42.9945H71.5276V27.9739Z" fill="white"/>
</svg>
