<svg width="1471" height="557" viewBox="0 0 1471 557" fill="none" xmlns="http://www.w3.org/2000/svg">
<path d="M1047.61 272.305C1047.61 272.253 1047.61 272.199 1047.58 272.152C1047.56 272.105 1047.52 272.068 1047.47 272.046C1047.42 272.024 1047.37 272.019 1047.31 272.031C1047.26 272.043 1047.22 272.071 1047.18 272.112C1039.02 282.618 1029.02 292.05 1019.28 301.804C1017.52 303.572 1014.34 306.215 1009.77 309.734C1005.5 313.014 1001.43 312.614 997.55 308.536C996.135 307.044 994.979 304.538 994.084 301.017C993.344 298.112 993.494 295.289 994.536 292.546C997.039 285.961 1001.11 280.008 1005.58 273.832C1006.99 271.876 1007.82 270.384 1008.05 269.357C1008.33 268.149 1007.78 267.583 1006.39 267.66C1002.22 267.902 998.236 268.411 994.447 269.185C993.606 269.358 992.651 269.771 991.583 270.425C991.283 270.604 991.036 270.858 990.87 271.159C989.284 274.033 988.252 276.122 987.775 277.427C985.145 284.579 983.574 288.879 983.061 290.325C979.795 299.597 977.149 308.439 975.123 316.85C974.171 320.772 973.025 327.32 972.814 332.722C972.612 337.839 972.524 340.608 972.55 341.029C972.936 347.389 970.521 350.161 964.371 347.473C957.018 344.251 953.497 338.414 953.808 329.963C953.905 327.399 953.96 324.984 954.387 322.289C955.775 313.465 957.33 306.036 959.051 300.003C960.795 293.873 963.09 286.291 965.936 277.255C965.98 277.115 965.989 276.966 965.961 276.821C965.933 276.677 965.869 276.542 965.776 276.429C965.683 276.315 965.563 276.228 965.427 276.174C965.291 276.12 965.144 276.101 965 276.119C962.644 276.404 960.233 276.852 957.767 277.465C941.215 281.61 927.537 285.077 916.735 287.867C915.262 288.247 914.218 289.113 913.176 290.406C908.508 296.193 903.252 302.438 897.407 309.139C895.499 311.321 893.172 314.708 891.157 317.14C886.752 322.447 882.776 327.567 879.227 332.5C875.867 337.171 873.399 340.567 871.825 342.69C867.375 348.705 864.128 353.133 862.085 355.973C860.598 358.047 859.074 360.739 857.43 362.85C852.202 369.578 848.499 374.593 843.719 379.048C841.917 380.73 839.747 381.006 837.21 379.874C833.601 378.267 827.528 372.68 827.091 368.261C826.637 363.673 829.661 358.703 832.439 355.08C837.309 348.73 843.467 341.479 848.622 334.809C856.043 325.196 864.886 313.879 875.151 300.857C875.172 300.833 875.188 300.807 875.197 300.784C875.207 300.761 875.21 300.74 875.206 300.724C875.195 300.696 875.189 300.671 875.188 300.65C875.189 300.602 875.178 300.555 875.158 300.512C875.137 300.468 875.107 300.431 875.069 300.402C875.031 300.373 874.986 300.353 874.939 300.345C874.892 300.336 874.844 300.339 874.798 300.352C870.493 301.514 866.783 302.508 863.67 303.332C859.527 304.441 856.16 303.966 854.478 299.896C852.884 296.067 851.845 292.947 851.36 290.535C851.06 289.04 851.431 287.666 852.474 286.413C853.088 285.674 854.431 285.118 856.502 284.747C869.401 282.426 882.432 278.982 895.596 274.413C899.138 273.175 901.067 270.246 903.582 266.908C908.254 260.697 916.717 251.342 921.036 246.143C928.905 236.683 934.072 230.538 936.54 227.71C941.388 222.154 945.41 217.434 948.605 213.55C954.897 205.896 961.062 198.962 967.079 191.749C982.354 173.416 992.083 161.805 996.266 156.916C996.267 156.911 999.745 152.829 1006.7 144.671C1012.38 138.004 1017.24 132.227 1021.29 127.34C1025.68 122.045 1032.91 113.959 1042.98 103.083C1048.86 96.7303 1057.29 89.1526 1063.77 82.33C1070.28 75.5024 1077.69 70.0359 1087.25 76.0554C1095.21 81.0681 1087.71 89.5276 1084.51 94.5607C1083.31 96.454 1081.83 98.6349 1080.07 101.103C1075.17 107.961 1070.41 115.298 1065.78 123.114C1061.77 129.892 1058.17 135.765 1054.98 140.733C1052.25 144.989 1048.85 150.976 1044.77 158.695C1027.08 192.264 1015.46 213.883 1002.85 241.432C1002.37 242.484 1002.08 243.454 1001.99 244.342C1001.97 244.471 1001.98 244.602 1002.03 244.725C1002.07 244.848 1002.13 244.962 1002.22 245.057C1002.31 245.153 1002.41 245.228 1002.53 245.279C1002.65 245.329 1002.78 245.354 1002.91 245.351C1008.88 245.234 1016.25 244.956 1020.27 250.141C1020.3 250.178 1020.34 250.209 1020.38 250.231C1020.42 250.253 1020.47 250.267 1020.52 250.27C1020.56 250.273 1020.61 250.266 1020.65 250.249C1020.7 250.233 1020.74 250.207 1020.77 250.174C1021.72 249.211 1022.72 248.148 1023.41 247.078C1029.29 237.985 1033.41 232.348 1038.65 224.082C1040.96 220.442 1043.52 216.815 1046.34 213.201C1051.52 206.536 1058.71 208.072 1064.08 213.376C1066.41 215.694 1067.18 218.518 1066.37 221.85C1065.82 224.095 1064.86 226.097 1063.49 227.855C1054.94 238.779 1049.57 245.877 1047.39 249.15C1046.21 250.916 1044.62 253.253 1042.64 256.16C1042.6 256.208 1042.58 256.269 1042.58 256.331C1042.59 256.392 1042.62 256.449 1042.67 256.489C1042.71 256.529 1042.77 256.548 1042.84 256.543C1042.9 256.537 1042.95 256.508 1042.99 256.46C1045.63 253.854 1048.4 251.264 1051.84 247.575C1057.51 241.49 1063.69 236.066 1070.38 231.304C1073.28 229.241 1075.62 226.899 1079.53 228.307C1083.33 229.672 1086.88 233.297 1088.01 237.437C1088.69 239.933 1087.57 243.107 1086.54 245.554C1086.51 245.625 1086.5 245.702 1086.5 245.779C1086.5 245.856 1086.53 245.931 1086.56 245.998C1086.6 246.065 1086.65 246.123 1086.71 246.167C1086.77 246.211 1086.84 246.239 1086.91 246.251C1087.06 246.272 1087.18 246.222 1087.27 246.101C1087.4 245.939 1087.48 245.84 1087.51 245.805C1091.24 242.34 1095.98 237.718 1101.75 231.941C1106.6 227.086 1110.84 223.399 1114.46 220.88C1117.46 218.797 1120.65 218.151 1124.03 218.942C1128.36 219.958 1135.67 222.338 1134.49 228.098C1134.15 229.774 1133.05 232.214 1131.19 235.418C1130.22 237.09 1125.72 244.281 1117.69 256.991C1112.02 265.955 1107.38 274.611 1103.85 283.842C1102.14 288.318 1101.1 293.246 1100.75 298.626C1100.73 298.885 1100.74 299.147 1100.78 299.406C1101.25 302.41 1102.25 306.778 1099.61 308.232C1098.14 309.056 1096.66 309.198 1095.19 308.66C1087.93 305.996 1084.12 300.894 1083.74 293.354C1083.58 290.041 1083.83 286.999 1084.5 284.228C1085.65 279.543 1086.32 275.997 1087.85 272.067C1088.54 270.299 1089.19 268.472 1089.8 266.585C1089.82 266.525 1089.81 266.461 1089.79 266.403C1089.77 266.345 1089.72 266.297 1089.67 266.267C1089.61 266.236 1089.55 266.225 1089.49 266.234C1089.43 266.244 1089.37 266.274 1089.33 266.32C1085.13 271.033 1079.56 277.101 1072.62 284.524C1068.57 288.852 1064.97 292.342 1061.83 294.993C1058.08 298.145 1052.45 299.166 1048.36 295.965C1043.16 291.898 1042.09 286.822 1044.45 280.978C1046.05 277.028 1047.15 275.122 1047.61 272.305ZM1018.08 165.072C1018.04 165.049 1018 165.04 1017.96 165.046C1017.92 165.053 1017.89 165.074 1017.87 165.106C1015.26 168.428 1013.14 171.457 1010.19 174.955C992.49 195.914 981.938 208.412 978.532 212.448C971.471 220.819 966.97 226.063 965.029 228.178C960.018 233.627 956.118 238.821 951.13 244.454C948.402 247.537 943.659 253.095 936.9 261.13C936.844 261.195 936.81 261.276 936.804 261.361C936.798 261.446 936.819 261.531 936.865 261.604C936.911 261.677 936.979 261.734 937.059 261.767C937.14 261.8 937.228 261.807 937.313 261.787C946.529 259.486 955.965 257.002 965.619 254.336C969.443 253.278 972.096 252.441 973.578 251.823C975.379 251.072 976.848 249.518 977.985 247.161C981.546 239.799 983.812 234.996 984.781 232.751C986.779 228.134 989.026 223.333 991.521 218.347C996.891 207.625 1003.59 193.935 1011.63 177.278C1013.11 174.208 1015.28 170.208 1018.13 165.279C1018.15 165.247 1018.16 165.208 1018.15 165.17C1018.14 165.132 1018.12 165.097 1018.09 165.074L1018.08 165.072Z" fill="url(#paint0_linear_3605_98)" fill-opacity="0.8"/>
<path d="M1291.68 201.291C1290.32 195.438 1294.94 188.69 1298.35 183.907C1301.43 179.596 1304.65 175.378 1308.02 171.251C1310.64 168.039 1312.3 166.174 1313 165.655C1316.9 162.767 1321.35 164.27 1325.69 166.361C1335.24 170.967 1331.68 179.914 1326.5 186.312C1321.9 191.995 1316.41 196.939 1310.05 201.144C1305.25 204.316 1299.89 207.39 1294.35 204.431C1293.37 203.911 1292.61 203.187 1292.07 202.26C1291.89 201.956 1291.75 201.629 1291.68 201.291Z" fill="url(#paint1_linear_3605_98)" fill-opacity="0.8"/>
<path d="M1365.09 249.52C1365.07 249.552 1365.07 249.59 1365.07 249.627C1365.08 249.665 1365.09 249.699 1365.12 249.725C1365.15 249.751 1365.18 249.768 1365.22 249.773C1365.26 249.777 1365.29 249.77 1365.33 249.751C1372.43 245.239 1379.07 241.464 1385.26 238.423C1392.72 234.765 1404.84 237.036 1402.96 248.05C1402.58 250.292 1401.62 253.753 1400.1 258.432C1400.03 258.643 1400 258.868 1400.03 259.091C1400.18 260.513 1400.86 261.19 1402.05 261.122C1403.99 261.004 1406.43 260.416 1409.38 259.357C1419.12 255.849 1427.99 250.758 1438.51 244.923C1443.3 242.262 1447.79 240.599 1453.46 237.896C1456.59 236.402 1461.19 235.208 1464.01 237.965C1466 239.905 1466.83 242.182 1466.49 244.796C1466.28 246.378 1465.13 247.217 1463.59 247.917C1457.02 250.927 1452.11 253.573 1448.85 255.857C1444.03 259.247 1439.9 262.75 1435.4 265.366C1430.79 268.051 1426.33 271.205 1421.49 273.58C1413.31 277.593 1402.96 281.973 1393.97 280.751C1389.74 280.18 1386.65 277.831 1384.71 273.703C1383.02 270.127 1381.82 266.044 1381.1 261.453C1380.94 260.473 1380.73 259.912 1380.46 259.769C1379.99 259.523 1379.38 259.608 1378.63 260.022C1374.5 262.279 1370.5 264.955 1366.62 268.051C1359.88 273.451 1353.61 278.238 1347.83 282.414C1345.36 284.189 1341.43 286.268 1338.46 286.58C1334.4 287.002 1331.26 285.079 1329.02 280.81C1326.99 276.931 1326.77 273.009 1328.38 269.044C1330.64 263.469 1333.64 258.051 1337.39 252.792C1337.43 252.733 1337.45 252.662 1337.45 252.59C1337.44 252.519 1337.41 252.453 1337.35 252.404C1337.3 252.356 1337.24 252.328 1337.17 252.326C1337.1 252.324 1337.03 252.348 1336.98 252.394C1332.78 255.786 1329.09 259.086 1325.91 262.292C1321.79 266.445 1317.97 269.594 1314.45 273.236C1310.56 277.256 1306.51 280.615 1301.95 284.706C1300.39 286.1 1298.03 287.796 1294.85 289.794C1294.62 289.942 1294.37 290.063 1294.11 290.153C1287.28 292.429 1282.85 286.881 1279.37 281.806C1277.11 278.509 1277.55 275.879 1279.1 272.111C1281.05 267.412 1283.95 262.011 1287.82 255.909C1292.48 248.577 1295.41 244.105 1296.64 242.495C1299.2 239.156 1301.36 234.761 1303.64 231.302C1310.37 221.031 1314.39 214.861 1315.69 212.791C1318.23 208.761 1322.4 208.304 1326.69 209.913C1329.75 211.052 1335.22 213.936 1335.85 217.458C1336.53 221.264 1334.61 225.11 1332.47 228.12C1332.22 228.471 1327.54 235.361 1318.41 248.789C1318.18 249.123 1318.07 249.379 1318.08 249.559C1318.08 249.602 1318.1 249.643 1318.12 249.678C1318.15 249.713 1318.18 249.74 1318.22 249.757C1318.26 249.774 1318.3 249.779 1318.34 249.773C1318.39 249.767 1318.43 249.749 1318.46 249.721C1325.07 243.85 1338.4 232.245 1358.44 214.905C1363.66 210.393 1368.61 206.681 1373.28 203.768C1375.88 202.158 1378.19 202.297 1380.55 204.356C1385.33 208.505 1388.4 214.345 1385.35 220.541C1383.72 223.849 1381.62 227.226 1379.05 230.672C1374.25 237.095 1370.54 242.014 1367.9 245.427C1367.19 246.335 1366.26 247.699 1365.09 249.52Z" fill="url(#paint2_linear_3605_98)" fill-opacity="0.8"/>
<path d="M1240.75 285.867C1240.75 285.815 1240.74 285.763 1240.72 285.717C1240.69 285.671 1240.65 285.633 1240.61 285.608C1240.56 285.583 1240.51 285.57 1240.45 285.573C1240.4 285.576 1240.35 285.593 1240.3 285.622C1232.62 290.994 1224.26 295.709 1215.02 296.583C1206.54 297.385 1199.72 294.446 1197.25 285.792C1196.66 283.687 1196.66 281.11 1197.25 278.063C1198.27 272.853 1199.77 268.654 1201.75 265.465C1207.91 255.52 1215.62 246.064 1224.88 237.097C1225.14 236.847 1225.32 236.529 1225.41 236.18C1225.49 235.831 1225.47 235.465 1225.35 235.126L1225.34 235.101C1225.3 234.98 1225.22 234.872 1225.13 234.786C1225.04 234.701 1224.92 234.641 1224.8 234.612C1224.67 234.583 1224.54 234.586 1224.42 234.621C1224.3 234.655 1224.18 234.721 1224.09 234.81C1220.31 238.533 1217.84 240.915 1216.67 241.956C1210.5 247.474 1203.46 250.641 1195.56 251.458C1192.64 251.758 1190.8 252.523 1189.74 255.091C1185.92 264.396 1181.24 272.405 1175.7 279.118C1174.75 280.272 1172.63 282.496 1169.35 285.79C1162.93 292.199 1152.26 298.448 1143.05 298.332C1134.88 298.229 1128.58 294.852 1124.15 288.202C1120.46 282.674 1119.1 276.512 1120.56 269.593C1121.98 262.822 1124.21 257.057 1127.25 252.298C1132.01 244.847 1137.36 237.954 1143.31 231.62C1147.07 227.628 1151.76 222.899 1157.41 217.43C1157.59 217.25 1157.72 217.027 1157.8 216.781C1157.95 216.287 1158.23 215.316 1158.64 213.867C1159.92 209.362 1163.11 209.514 1167.4 209.766C1173.88 210.14 1180.02 211.525 1185.82 213.921C1188.88 215.182 1190.53 217.384 1190.77 220.526C1190.85 221.519 1190.48 223.298 1189.65 225.864C1189.58 226.104 1189.55 226.357 1189.59 226.602C1189.66 227.184 1190.05 227.926 1190.75 228.828C1192.24 230.749 1194.13 231.322 1196.44 230.55C1200.44 229.209 1203.86 226.889 1206.67 223.591C1206.98 223.236 1207.19 222.812 1207.29 222.356C1207.39 221.901 1207.38 221.427 1207.25 220.977C1205.82 215.774 1204.87 212.173 1207.47 207.278C1209.52 203.409 1213.48 201.999 1217.88 202.53C1222.66 203.104 1226.84 205.015 1230.43 208.264C1233.21 210.769 1234.63 214.057 1234.7 218.128C1234.74 220.319 1235.81 222.216 1237.91 223.818C1240.35 225.668 1242.94 227.937 1245.68 230.627C1248.89 233.767 1249.89 237.085 1248.68 240.582C1248.11 242.229 1246.31 244.586 1243.29 247.653C1235.51 255.534 1227.89 264.211 1220.42 273.685C1218.34 276.328 1216.67 278.818 1215.42 281.155C1215.34 281.295 1215.3 281.453 1215.31 281.612C1215.32 281.771 1215.38 281.925 1215.47 282.056C1215.56 282.188 1215.68 282.291 1215.83 282.356C1215.98 282.421 1216.14 282.445 1216.3 282.424C1217.25 282.296 1218.29 282.022 1219.42 281.601C1223.91 279.939 1228.15 277.614 1232.15 274.624C1237.69 270.485 1241.71 267.277 1244.19 265C1247.94 261.571 1250.57 259.145 1252.66 255.029C1254.02 252.359 1257.18 246.482 1262.15 237.399C1265.11 231.984 1267.91 227.877 1270.54 225.079C1275.39 219.949 1280.92 220.333 1286.85 223.272C1295.73 227.689 1288.52 239.926 1284.91 245.266C1280.85 251.276 1277.12 256.962 1273.72 262.327C1268.7 270.232 1264.6 278.409 1261.42 286.859C1260.19 290.123 1259.26 294.42 1258.52 297.7C1258.26 298.836 1258.12 299.993 1258.08 301.153C1258.02 303.462 1257.94 305.788 1257.84 308.128C1257.73 310.8 1257.06 314.418 1253.45 314.104C1243.26 313.231 1238.65 299.724 1240.04 291.378C1240.42 289.124 1240.65 287.287 1240.75 285.867ZM1171.86 236.352C1170.89 236.724 1169.94 237.314 1168.99 238.12C1160.11 245.64 1152.23 253.864 1145.34 262.791C1142.43 266.565 1140.65 269.875 1137.96 275.282C1137.48 276.24 1137.35 277.19 1137.56 278.133C1137.64 278.494 1137.85 278.814 1138.15 279.029C1138.44 279.245 1138.8 279.341 1139.16 279.299C1143.76 278.776 1148.51 275.918 1152.07 272.907C1157.36 268.455 1162.04 263.52 1166.12 258.102C1169.19 254.017 1171.09 250.025 1172.74 245.406C1173.76 242.562 1173.15 240.331 1172.35 236.622C1172.34 236.569 1172.32 236.52 1172.29 236.477C1172.26 236.434 1172.22 236.399 1172.17 236.373C1172.12 236.348 1172.07 236.332 1172.01 236.329C1171.96 236.325 1171.91 236.333 1171.86 236.352Z" fill="url(#paint3_linear_3605_98)" fill-opacity="0.8"/>
<path d="M1096.32 357.926C1096.1 357.904 1095.99 357.894 1095.97 357.896C1086.69 359.742 1079.9 360.597 1070.89 362.426C1049.6 366.726 1035.26 369.782 1027.87 371.594C1023.6 372.636 1016.66 374.351 1007.04 376.739C999.337 378.645 993.624 380.179 989.898 381.343C983.403 383.372 979.623 384.495 978.559 384.713C975.659 385.307 971.874 386.4 967.204 387.992C965.467 388.586 960.048 390.349 950.947 393.281C942.158 396.113 929.923 400.714 923.906 402.913C916.866 405.493 910.516 408.463 903.515 411.231C900.771 412.316 898.093 413.52 895.48 414.844C889.381 417.942 884.67 420.438 881.347 422.331C879.38 423.453 877.941 424.154 877.028 424.435C876.769 424.515 876.498 424.547 876.229 424.531C871.794 424.255 869.726 418.253 868.771 414.532C866.198 404.501 872.061 399.235 880.252 395.587C894.473 389.26 909.592 384.244 923.694 378.994C926.364 378.004 929.916 377.067 932.853 376.038C942.462 372.674 948.53 370.647 951.057 369.955C958.349 367.957 963.585 366.069 970.623 364.034C991.496 357.996 1013.2 352.317 1034.84 348.009C1052.18 344.561 1059.06 343.027 1071 341.17C1077.61 340.144 1081.56 339.52 1082.86 339.297C1095.73 337.097 1108.48 335.369 1121.12 334.114C1124.02 333.825 1128.28 333.327 1133.9 332.618C1135.94 332.357 1140.21 331.961 1146.7 331.431C1171.29 329.431 1195.47 328.421 1219.23 328.4C1227.83 328.396 1238.32 328.649 1250.68 329.16C1261.37 329.603 1271.65 330.556 1281.53 332.018C1286.04 332.687 1291.82 333.549 1291.62 339.553C1291.47 344.327 1290.24 348.6 1287.93 352.372C1286.03 355.502 1282.66 356.313 1278.67 355.973C1273.05 355.498 1264.18 355.405 1252.06 355.695C1241.67 355.941 1233.92 356.251 1228.83 356.627C1200.75 358.711 1174.19 361.606 1147.13 366.878C1147 366.903 1146.88 366.968 1146.79 367.065C1146.7 367.162 1146.64 367.286 1146.62 367.419C1146.14 371.045 1145.92 374.527 1143.89 377.47C1141.58 380.813 1137.72 385.681 1133.51 386.004C1120.71 386.985 1110.51 388.276 1102.9 389.877C1099.03 390.688 1092.96 391.989 1084.69 393.778C1076.37 395.573 1067.95 398.596 1060.45 400.636C1058.88 401.06 1055.15 402.345 1049.25 404.489C1045.13 405.988 1041.35 403.885 1041.73 399.216C1042.19 393.638 1041.95 388.277 1041.02 383.133C1040.97 382.864 1040.97 382.589 1041.01 382.319C1041.54 379.186 1042.93 377.194 1045.18 376.343C1055.78 372.307 1061.16 369.885 1070.56 366.821C1078.91 364.102 1087.61 360.898 1096.36 358.313C1096.42 358.307 1096.46 358.281 1096.49 358.241C1096.53 358.201 1096.54 358.149 1096.54 358.098C1096.53 358.047 1096.5 358 1096.46 357.968C1096.42 357.935 1096.37 357.921 1096.32 357.926Z" fill="url(#paint4_linear_3605_98)" fill-opacity="0.8"/>
<path d="M333.003 112.917C333.033 112.871 333.048 112.816 333.046 112.761C333.043 112.706 333.024 112.653 332.99 112.609C332.956 112.566 332.909 112.534 332.856 112.518C332.804 112.502 332.747 112.503 332.695 112.52C326.978 114.469 316.802 118.598 309.95 121.618C303.123 124.615 297.136 127.177 291.989 129.305C284.509 132.391 270.592 139.148 250.237 149.574C228.996 160.451 202.478 175.752 170.68 195.478C166.988 197.772 164.367 199.497 162.817 200.654C159.329 203.258 156.157 204.736 152.232 207.46C138.74 216.831 127.602 225.087 118.819 232.229C117.002 233.705 113.136 237.032 107.223 242.21C106.434 242.9 104.385 245.117 101.074 248.861C99.7091 250.399 98.6121 251.32 97.7831 251.625C93.8741 253.036 91.6614 250.861 88.818 248.53C88.588 248.339 88.3809 248.124 88.2008 247.889C87.9065 247.513 86.9073 246.21 85.2029 243.98C81.3486 238.946 78.1799 230.075 81.2736 224.238C82.804 221.353 84.27 219.174 85.6714 217.702C90.2942 212.856 95.2161 208.393 100.437 204.313C102.766 202.488 104.212 201.277 104.774 200.679C104.803 200.648 108.649 197.843 116.309 192.264C121.846 188.234 126.805 184.923 131.187 182.33C133.154 181.162 134.825 180.068 136.201 179.049C138.815 177.106 140.475 175.977 141.179 175.663C143.202 174.757 144.54 174.004 145.193 173.404C146.575 172.107 148.816 171.465 150.49 170.255C151.847 169.274 156.437 166.504 164.26 161.946C184.801 149.99 204.031 139.302 221.949 129.882C230.23 125.525 239.453 120.916 249.62 116.055C267.144 107.678 276.441 103.214 277.512 102.664C280.598 101.081 284.086 99.4989 287.976 97.9192C292.511 96.0774 296.456 93.9512 301.943 91.5652C309.058 88.4685 317.018 85.0309 325.821 81.2524C331.556 78.7927 336.793 76.9575 342.527 74.3986C343.668 73.8907 345.899 72.9799 349.22 71.6663C356.366 68.8336 364.952 65.5425 374.977 61.7929C382.358 59.0257 389.758 56.9047 397.176 55.4301C404.855 53.9082 410.406 59.3404 413.082 65.9425C415.395 71.6874 416.91 76.8496 415.653 82.704C414.527 87.9145 411.839 88.7388 406.593 89.7069C402.171 90.5139 397.607 91.6533 392.9 93.1252C385.298 95.49 380.995 98.779 376.867 104.605C374.98 107.259 373.987 108.647 373.888 108.768C372.33 110.65 366.759 117.992 357.176 130.792C353.024 136.341 346.322 145.024 337.068 156.843C336.571 157.477 329.781 166.163 316.697 182.902C312.003 188.901 303.243 200.489 290.419 217.664C288.183 220.659 286.595 222.885 285.653 224.342C283.727 227.338 281.685 229.565 279.166 233.115C261.663 257.732 241.447 286.08 219.854 314.727C210.737 326.822 201.125 339.717 191.018 353.41C190.188 354.538 189.217 355.851 188.106 357.35C178.533 370.296 169.704 382.211 161.618 393.094C155.084 401.876 149.369 409.036 143.131 417.465C136.884 425.902 132.971 430.657 123.529 442.487C116.942 450.737 112.141 456.544 109.126 459.907C103.865 465.777 98.8018 471.351 93.9346 476.629C92.3066 478.397 88.1536 482.386 81.4755 488.594C76.3101 493.399 69.2006 498.186 64.5832 500.905C55.5185 506.249 44.7161 508.256 34.8281 503.646C29.3194 501.076 24.664 497.569 20.8621 493.124C20.2798 492.438 18.9035 490.513 16.733 487.348C15.1079 484.975 13.917 482.935 13.1604 481.227C8.81945 471.387 7.34095 460.957 8.72492 449.938C10.3647 436.957 13.6848 424.724 19.3924 413.163C21.8757 408.129 23.8109 403.494 26.827 397.994C33.9382 385.035 41.8677 372.444 50.6155 360.224C53.4788 356.221 56.4113 352.525 59.4129 349.136C65.8966 341.814 72.3058 334.66 80.9315 331.141C87.4503 328.477 99.7608 338.112 99.972 344.839C100.106 348.883 98.4759 351.994 95.3608 354.988C91.1866 358.994 86.7119 363.358 81.9365 368.082C80.9975 369.01 78.0048 372.383 72.9583 378.2C70.7095 380.797 68.9845 383.047 67.7834 384.95C65.8527 388.027 63.3587 390.616 61.1724 394.17C54.1923 405.5 49.331 413.983 46.5886 419.617C43.1736 426.612 40.7593 432.379 39.3456 436.92C37.1968 443.789 35.0317 451.314 34.5175 459.598C34.2363 464.209 34.0616 472.562 40.9879 471.268C44.1648 470.669 47.6781 469.218 51.5277 466.915C56.9236 463.684 62.892 459.267 69.4331 453.665C72.2219 451.278 77.0249 446.671 83.8421 439.844C87.0307 436.656 90.1554 433.267 93.2163 429.678C98.5944 423.36 105.641 415.966 111.152 409.248C115.639 403.792 118.802 400.221 122.414 395.485C131.142 384.024 141.775 370.486 154.313 354.871C162.016 345.285 167.059 338.259 174.755 328.564C176.515 326.35 180.426 321.177 186.488 313.044C192.19 305.404 196.969 299.621 202.015 292.271C207.91 283.683 215.455 274.177 222.362 264.405C225.375 260.135 227.897 256.769 229.93 254.309C231.481 252.431 233.453 249.749 235.847 246.265C242 237.307 247.651 229.478 252.799 222.777C254.319 220.803 255.626 218.909 256.721 217.095C258.132 214.753 259.399 212.834 260.522 211.337C263.606 207.211 268.407 200.467 274.926 191.105C281.565 181.575 292.588 166.147 302.018 153.773C318.031 132.761 326.406 121.722 327.14 120.655C328.629 118.502 331.175 115.768 333.003 112.917Z" fill="url(#paint5_linear_3605_98)" fill-opacity="0.8"/>
<path d="M366.882 302.6C370.94 298.267 374.374 294.653 377.186 291.759C380.115 288.748 383.705 285.282 387.954 281.362C398.325 271.777 403.602 266.902 410.497 261.338C413.742 258.719 416.754 256.732 419.535 255.378C421.428 254.458 424.731 254.644 427.003 255.721C430.204 257.229 432.979 259.181 435.327 261.579C441.197 267.554 436.967 274.056 433.248 280.73C426.418 292.982 420.827 303.595 416.474 312.57C415.426 314.729 413.823 319.014 411.665 325.425C411.22 326.759 410.951 328.145 410.866 329.548C410.568 334.661 409.848 337.518 407.592 342.592C404.152 350.343 392.625 348.229 387.042 344.919C382.39 342.16 382.771 336.422 384.034 331.813C385.954 324.813 388.444 317.268 391.505 309.177C392.205 307.323 392.779 305.534 393.227 303.81C393.243 303.744 393.238 303.675 393.215 303.612C393.191 303.549 393.148 303.494 393.093 303.455C393.038 303.416 392.972 303.395 392.904 303.394C392.837 303.393 392.77 303.412 392.714 303.449C390.346 305.117 388.258 306.907 386.448 308.817C368.339 327.909 356.77 340.468 351.741 346.492C348.037 350.936 343.527 355.637 338.211 360.595C336.73 361.975 335.616 362.938 334.871 363.486C331.129 366.252 326.415 366.196 322.952 363.133C319.38 359.973 316.467 356.434 314.214 352.514C312.048 348.743 312.439 345.603 314.552 341.549C323.278 324.811 331.703 310.027 339.825 297.198C344.16 290.353 346.701 285.708 350.359 280.096C355.934 271.554 362.809 261.179 370.983 248.971C375.059 242.883 377.572 238.549 381.332 233.379C384.949 228.409 388.102 222.646 392.048 216.833C403.381 200.11 412.397 186.47 419.096 175.914C419.795 174.811 424.442 168.022 433.037 155.546C441.424 143.358 450.61 132.213 459.844 120.85C462.701 117.324 465.905 115.311 470.566 116.845C474.186 118.042 481.523 122.752 482.351 127.262C483.162 131.606 478.373 139.695 476.158 142.802C473.885 145.978 469.772 151.292 463.818 158.747C462.778 160.042 461.816 161.387 460.933 162.782C459.861 164.468 457.928 166.173 456.927 168.07C455.649 170.459 453.535 172.53 452.097 175.008C450.766 177.309 448.965 179.991 446.694 183.052C445.842 184.206 442.649 188.781 437.116 196.779C435.318 199.376 433.636 201.998 432.069 204.642C430.008 208.101 427.754 210.913 425.053 214.935C411.494 235.082 401.678 250.155 390.578 266.273C388.251 269.655 385.112 274.403 381.161 280.515C376.515 287.692 371.339 294.911 366.605 302.38C366.581 302.417 366.572 302.461 366.579 302.505C366.586 302.549 366.609 302.588 366.644 302.616C366.678 302.643 366.722 302.657 366.766 302.654C366.81 302.651 366.851 302.631 366.882 302.6Z" fill="url(#paint6_linear_3605_98)" fill-opacity="0.8"/>
<path d="M469.809 290.268C470.122 290.095 470.45 289.819 470.793 289.441C479.453 279.951 491.101 268.393 497.921 261.518C502.363 257.048 507.099 252.652 512.129 248.328C514.183 246.562 516.537 245.875 519.19 246.264C524.744 247.081 534.408 250.453 534.617 257.044C534.652 258.072 534.082 259.973 532.908 262.747C526.241 278.573 518.732 296.514 513.301 314.02C513.102 314.676 513.121 315.316 513.359 315.941C514.772 319.589 519.968 318.287 522.845 317.208C524.847 316.455 527.91 315.207 532.033 313.464C538.609 310.684 542.727 315.142 538.259 321.26C532.853 328.655 521.192 332.513 512.117 333.977C507.144 334.777 503.621 334.715 499.398 333.664C490.945 331.551 488.714 324.216 488.971 316.365C489.06 313.646 489.952 309.1 491.646 302.728C493.061 297.394 494.242 292.695 495.187 288.631C495.206 288.553 495.199 288.471 495.167 288.398C495.134 288.326 495.078 288.265 495.007 288.227C494.936 288.189 494.854 288.175 494.773 288.187C494.693 288.2 494.618 288.237 494.561 288.295C489.989 292.988 485.318 298.192 480.548 303.908C474.953 310.62 469.31 317.435 463.619 324.353C461.507 326.92 459.305 329.44 457.012 331.915C451.091 338.29 446.935 343.714 438.275 342.26C435.227 341.752 433.135 341.317 431.997 340.954C423.151 338.151 424.848 330.931 427.352 323.683C427.514 323.207 427.643 322.718 427.737 322.218L429.448 312.919C429.512 312.594 429.607 312.276 429.733 311.968C434.594 300.403 443.69 287.574 448.281 279.684C450.668 275.591 454.197 270.011 458.869 262.944C460.827 259.983 464.51 253.995 469.916 244.977C471.089 243.027 472.586 241.608 474.408 240.721C474.681 240.591 474.973 240.516 475.266 240.503C481.347 240.271 486.614 242.239 491.065 246.408C495.584 250.639 493.602 255.798 490.391 260.253C483.26 270.156 477.731 278.13 473.804 284.175C472.482 286.22 471.079 288.163 469.594 290.005C469.569 290.037 469.556 290.077 469.557 290.119C469.558 290.16 469.572 290.2 469.597 290.231C469.623 290.262 469.658 290.283 469.696 290.29C469.735 290.296 469.775 290.289 469.809 290.268Z" fill="url(#paint7_linear_3605_98)" fill-opacity="0.8"/>
<path d="M337.282 268.667C337.171 268.586 337.04 268.536 336.904 268.521C336.767 268.506 336.629 268.526 336.503 268.58C336.376 268.634 336.266 268.72 336.182 268.828C336.098 268.937 336.044 269.066 336.025 269.202C335.465 273.295 335.459 278.956 334.604 283.754C331.771 299.563 325.039 313.557 315.878 326.862C312.361 331.984 308.101 336.66 303.978 341.793C302.168 344.046 298.268 347.776 292.278 352.982C285.671 358.716 278.51 363.271 270.793 366.646C269.021 367.422 265.855 368.438 261.294 369.696C254.83 371.486 248.272 371.763 241.901 369.81C232.186 366.826 229.388 357.029 230.544 347.965C230.798 345.943 231.139 343.704 231.566 341.249C231.852 339.557 232.455 337.367 233.373 334.68C234.02 332.787 234.928 330.122 236.099 326.687C236.604 325.189 238.529 321.054 241.874 314.282C244.099 309.776 246.339 305.801 248.592 302.358C254.961 292.621 259.732 285.743 262.905 281.722C267.822 275.48 273.835 268.937 280.943 262.095C284.743 258.438 289.156 254.988 294.181 251.745C295.605 250.824 296.828 249.432 297.847 247.569C300.4 242.907 301.907 240.549 307.329 239.351C316.905 237.244 327.678 236.935 336.919 240.458C343.993 243.153 348.456 248.174 350.31 255.521C351.889 261.803 350.549 274.413 340.545 270.919C340.331 270.845 340.128 270.739 339.942 270.605L337.282 268.667ZM315.681 269.437C313.989 269.866 312.352 270.683 310.769 271.889C302.817 277.957 295.44 285.028 288.638 293.102C278.894 304.666 270.438 317.001 263.271 330.108C260.184 335.754 258.115 340.209 257.065 343.473C256.522 345.157 256.343 346.85 256.53 348.554C256.55 348.744 256.612 348.927 256.712 349.09C256.812 349.253 256.948 349.392 257.109 349.495C257.27 349.599 257.452 349.665 257.641 349.689C257.831 349.713 258.024 349.694 258.205 349.633C271.666 345.128 280.478 334.773 290.481 323.294C296.098 316.847 299.933 310.69 305.151 301.91C310.867 292.292 314.545 283.021 316.185 274.097C316.46 272.607 316.558 271.248 316.48 270.02C316.475 269.926 316.449 269.833 316.403 269.75C316.358 269.667 316.295 269.595 316.219 269.54C316.142 269.484 316.054 269.446 315.962 269.428C315.869 269.41 315.773 269.414 315.681 269.437Z" fill="url(#paint8_linear_3605_98)" fill-opacity="0.8"/>
<defs>
<linearGradient id="paint0_linear_3605_98" x1="1022.04" y1="63.2035" x2="962.266" y2="402.186" gradientUnits="userSpaceOnUse">
<stop stop-color="#00A3E9"/>
<stop offset="1" stop-color="#2BBFFF"/>
</linearGradient>
<linearGradient id="paint1_linear_3605_98" x1="1315.66" y1="163.508" x2="1307.93" y2="207.348" gradientUnits="userSpaceOnUse">
<stop stop-color="#00A3E9"/>
<stop offset="1" stop-color="#2BBFFF"/>
</linearGradient>
<linearGradient id="paint2_linear_3605_98" x1="1382.21" y1="203.581" x2="1364.55" y2="303.772" gradientUnits="userSpaceOnUse">
<stop stop-color="#00A3E9"/>
<stop offset="1" stop-color="#2BBFFF"/>
</linearGradient>
<linearGradient id="paint3_linear_3605_98" x1="1214.39" y1="201.876" x2="1195.68" y2="307.984" gradientUnits="userSpaceOnUse">
<stop stop-color="#00A3E9"/>
<stop offset="1" stop-color="#2BBFFF"/>
</linearGradient>
<linearGradient id="paint4_linear_3605_98" x1="1093.33" y1="298.797" x2="1065.28" y2="457.898" gradientUnits="userSpaceOnUse">
<stop stop-color="#00A3E9"/>
<stop offset="1" stop-color="#2BBFFF"/>
</linearGradient>
<linearGradient id="paint5_linear_3605_98" x1="253.909" y1="29.2735" x2="166.018" y2="527.727" gradientUnits="userSpaceOnUse">
<stop stop-color="#00A3E9"/>
<stop offset="1" stop-color="#2BBFFF"/>
</linearGradient>
<linearGradient id="paint6_linear_3605_98" x1="420.533" y1="107.905" x2="373.699" y2="373.512" gradientUnits="userSpaceOnUse">
<stop stop-color="#00A3E9"/>
<stop offset="1" stop-color="#2BBFFF"/>
</linearGradient>
<linearGradient id="paint7_linear_3605_98" x1="497.161" y1="242.37" x2="478.302" y2="349.325" gradientUnits="userSpaceOnUse">
<stop stop-color="#00A3E9"/>
<stop offset="1" stop-color="#2BBFFF"/>
</linearGradient>
<linearGradient id="paint8_linear_3605_98" x1="303.197" y1="233.821" x2="278.054" y2="376.418" gradientUnits="userSpaceOnUse">
<stop stop-color="#00A3E9"/>
<stop offset="1" stop-color="#2BBFFF"/>
</linearGradient>
</defs>
</svg>
